<?xml version="1.0" encoding="UTF-8" standalone="no"?><!DOCTYPE svg PUBLIC "-//W3C//DTD SVG 1.1//EN" "http://www.w3.org/Graphics/SVG/1.1/DTD/svg11.dtd"><!-- Generated by graphviz version 2.40.1 (20161225.0304)
 --><!-- Title: %0 Pages: 1 --><svg xmlns="http://www.w3.org/2000/svg" xmlns:xlink="http://www.w3.org/1999/xlink" width="1083pt" height="188pt" viewBox="0.00 0.00 1082.89 188.00">
<g id="graph0" class="graph" transform="scale(1 1) rotate(0) translate(4 184)">
<title>%0</title>
<polygon fill="#ffffff" stroke="transparent" points="-4,4 -4,-184 1078.8867,-184 1078.8867,4 -4,4"/>
<g id="clust1" class="cluster">
<title>cluster_1856_MADFactory1155</title>
<polygon fill="none" stroke="#000000" points="0,0 0,-224.8 1030.6311,-224.8 1030.6311,0 0,0"/>
<text text-anchor="middle" x="515.3156" y="-208.2" font-family="Times,serif" font-size="14.00" fill="#000000">MADFactory1155</text>
</g>
<g id="clust2" class="cluster">
<title>cluster_10593_Owned</title>
<polygon fill="none" stroke="#000000" points="0,0 0,-104.8 282.9527,-104.8 282.9527,0 0,0"/>
<text text-anchor="middle" x="141.4763" y="-88.2" font-family="Times,serif" font-size="14.00" fill="#000000">Owned</text>
</g>
<g id="clust3" class="cluster">
<title>cluster_10533_FactoryVerifier</title>
<polygon fill="none" stroke="#000000" points="0,0 0,-104.8 252.6719,-104.8 252.6719,0 0,0"/>
<text text-anchor="middle" x="126.3359" y="-88.2" font-family="Times,serif" font-size="14.00" fill="#000000">FactoryVerifier</text>
</g>
<g id="clust4" class="cluster">
<title>cluster_11366_Pausable</title>
<polygon fill="none" stroke="#000000" points="0,0 0,-104.8 502.9527,-104.8 502.9527,0 0,0"/>
<text text-anchor="middle" x="251.4763" y="-88.2" font-family="Times,serif" font-size="14.00" fill="#000000">Pausable</text>
</g>
<g id="clust5" class="cluster">
<title>cluster_659_MAD</title>
<polygon fill="none" stroke="#000000" points="0,0 0,-64.8 67.9011,-64.8 67.9011,0 0,0"/>
<text text-anchor="middle" x="33.9506" y="-48.2" font-family="Times,serif" font-size="14.00" fill="#000000">MAD</text>
</g>
<g id="clust6" class="cluster">
<title>cluster_11285_DCPrevent</title>
<polygon fill="none" stroke="#000000" points="0,0 0,-64.8 300.9527,-64.8 300.9527,0 0,0"/>
<text text-anchor="middle" x="150.4763" y="-48.2" font-family="Times,serif" font-size="14.00" fill="#000000">DCPrevent</text>
</g>
<g id="clust7" class="cluster">
<title>cluster_solidity</title>
<polygon fill="none" stroke="#000000" points="0,0 0,-116.8 1256.7754,-116.8 1256.7754,0 0,0"/>
<text text-anchor="middle" x="628.3877" y="-100.2" font-family="Times,serif" font-size="14.00" fill="#000000">[Solidity]</text>
</g>
<!-- 1856_createCollection -->
<g id="node1" class="node">
<title>1856_createCollection</title>
<ellipse fill="none" stroke="#000000" cx="954.3156" cy="-180" rx="74.1316" ry="18"/>
<text text-anchor="middle" x="954.3156" y="-175.8" font-family="Times,serif" font-size="14.00" fill="#000000">createCollection</text>
</g>
<!-- 1856__limiter -->
<g id="node8" class="node">
<title>1856__limiter</title>
<ellipse fill="none" stroke="#000000" cx="633.6133" cy="-20" rx="41.7269" ry="18"/>
<text text-anchor="middle" x="633.6133" y="-15.8" font-family="Times,serif" font-size="14.00" fill="#000000">_limiter</text>
</g>
<!-- 1856_createCollection&#45;&gt;1856__limiter -->
<g id="edge18" class="edge">
<title>1856_createCollection-&gt;1856__limiter</title>
<path fill="none" stroke="#000000" d="M921.8,-163.7778C861.6679,-133.7776 733.475,-69.8215 670.3239,-38.3151"/>
<polygon fill="#000000" stroke="#000000" points="671.6413,-35.061 661.1306,-33.7285 668.5163,-41.3248 671.6413,-35.061"/>
</g>
<!-- 1856__royaltyLocker -->
<g id="node21" class="node">
<title>1856__royaltyLocker</title>
<ellipse fill="none" stroke="#000000" cx="464.5638" cy="-140" rx="70.6277" ry="18"/>
<text text-anchor="middle" x="464.5638" y="-135.8" font-family="Times,serif" font-size="14.00" fill="#000000">_royaltyLocker</text>
</g>
<!-- 1856_createCollection&#45;&gt;1856__royaltyLocker -->
<g id="edge23" class="edge">
<title>1856_createCollection-&gt;1856__royaltyLocker</title>
<path fill="none" stroke="#000000" d="M883.8855,-174.2477C793.0943,-166.8324 635.7581,-153.9821 541.7844,-146.3069"/>
<polygon fill="#000000" stroke="#000000" points="542.0224,-142.8148 531.7706,-145.489 541.4525,-149.7916 542.0224,-142.8148"/>
</g>
<!-- 1856_nonReentrant -->
<g id="node25" class="node">
<title>1856_nonReentrant</title>
<ellipse fill="none" stroke="#000000" cx="288.2037" cy="-180" rx="87.4079" ry="18"/>
<text text-anchor="middle" x="288.2037" y="-175.8" font-family="Times,serif" font-size="14.00" fill="#000000">1856_nonReentrant</text>
</g>
<!-- 1856_createCollection&#45;&gt;1856_nonReentrant -->
<g id="edge1" class="edge">
<title>1856_createCollection-&gt;1856_nonReentrant</title>
<path fill="none" stroke="#000000" d="M879.843,-180C758.9922,-180 520.1931,-180 385.8751,-180"/>
<polygon fill="#000000" stroke="#000000" points="385.594,-176.5001 375.594,-180 385.594,-183.5001 385.594,-176.5001"/>
</g>
<!-- 1856_isThisOg -->
<g id="node27" class="node">
<title>1856_isThisOg</title>
<ellipse fill="none" stroke="#000000" cx="288.5851" cy="-140" rx="70.6703" ry="18"/>
<text text-anchor="middle" x="288.5851" y="-135.8" font-family="Times,serif" font-size="14.00" fill="#000000">1856_isThisOg</text>
</g>
<!-- 1856_createCollection&#45;&gt;1856_isThisOg -->
<g id="edge7" class="edge">
<title>1856_createCollection-&gt;1856_isThisOg</title>
<path fill="none" stroke="#000000" d="M882.1211,-175.6622C756.4356,-168.1105 498.402,-152.6067 367.901,-144.7656"/>
<polygon fill="#000000" stroke="#000000" points="367.7763,-141.2519 357.5843,-144.1458 367.3564,-148.2393 367.7763,-141.2519"/>
</g>
<!-- 1856_whenNotPaused -->
<g id="node30" class="node">
<title>1856_whenNotPaused</title>
<ellipse fill="none" stroke="#000000" cx="99.9316" cy="-180" rx="97.8633" ry="18"/>
<text text-anchor="middle" x="99.9316" y="-175.8" font-family="Times,serif" font-size="14.00" fill="#000000">1856_whenNotPaused</text>
</g>
<!-- 1856_createCollection&#45;&gt;1856_whenNotPaused -->
<g id="edge12" class="edge">
<title>1856_createCollection-&gt;1856_whenNotPaused</title>
<path fill="none" stroke="#000000" d="M879.9892,-180C728.6513,-180 384.1983,-180 208.0453,-180"/>
<polygon fill="#000000" stroke="#000000" points="207.9794,-176.5001 197.9794,-180 207.9794,-183.5001 207.9794,-176.5001"/>
</g>
<!-- 1856_setSigner -->
<g id="node2" class="node">
<title>1856_setSigner</title>
<ellipse fill="none" stroke="#000000" cx="288.9729" cy="-20" rx="46.9458" ry="18"/>
<text text-anchor="middle" x="288.9729" y="-15.8" font-family="Times,serif" font-size="14.00" fill="#000000">setSigner</text>
</g>
<!-- 1856_onlyOwner -->
<g id="node26" class="node">
<title>1856_onlyOwner</title>
<ellipse fill="none" stroke="#000000" cx="796.6206" cy="-180" rx="78.7415" ry="18"/>
<text text-anchor="middle" x="796.6206" y="-175.8" font-family="Times,serif" font-size="14.00" fill="#000000">1856_onlyOwner</text>
</g>
<!-- 1856_setSigner&#45;&gt;1856_onlyOwner -->
<g id="edge5" class="edge">
<title>1856_setSigner-&gt;1856_onlyOwner</title>
<path fill="none" stroke="#000000" d="M325.4817,-31.5068C413.1362,-59.1337 635.9507,-129.3602 740.6525,-162.36"/>
<polygon fill="#000000" stroke="#000000" points="739.8181,-165.7667 750.4077,-165.4347 741.9224,-159.0904 739.8181,-165.7667"/>
</g>
<!-- sstore(uint256,uint256) -->
<g id="node51" class="node">
<title>sstore(uint256,uint256)</title>
<ellipse fill="none" stroke="#000000" cx="769.4245" cy="-72" rx="101.3491" ry="18"/>
<text text-anchor="middle" x="769.4245" y="-67.8" font-family="Times,serif" font-size="14.00" fill="#000000">sstore(uint256,uint256)</text>
</g>
<!-- 1856_setSigner&#45;&gt;sstore(uint256,uint256) -->
<g id="edge51" class="edge">
<title>1856_setSigner-&gt;sstore(uint256,uint256)</title>
<path fill="none" stroke="#000000" d="M334.6058,-24.9389C411.7928,-33.293 569.7386,-50.3877 672.5162,-61.5115"/>
<polygon fill="#000000" stroke="#000000" points="672.2764,-65.0059 682.595,-62.6023 673.0297,-58.0465 672.2764,-65.0059"/>
</g>
<!-- 1856_setSigner&#45;&gt;require(bool,string) -->
<g id="edge61" class="edge">
<title>1856_setSigner-&gt;require(bool,string)</title>
<path fill="none" stroke="#000000" d="M335.6331,-22.759C474.6683,-30.9802 888.0679,-55.4246 1074.8867,-66.4713"/>
<polygon fill="#000000" stroke="#000000" points="1074.776,-69.9707 1084.9652,-67.0672 1075.1893,-62.9829 1074.776,-69.9707"/>
</g>
<!-- 1856_typeChecker -->
<g id="node3" class="node">
<title>1856_typeChecker</title>
<ellipse fill="none" stroke="#000000" cx="796.8359" cy="-100" rx="59.6723" ry="18"/>
<text text-anchor="middle" x="796.8359" y="-95.8" font-family="Times,serif" font-size="14.00" fill="#000000">typeChecker</text>
</g>
<!-- 1856__isRouter -->
<g id="node10" class="node">
<title>1856__isRouter</title>
<ellipse fill="none" stroke="#000000" cx="634.5866" cy="-60" rx="48.6733" ry="18"/>
<text text-anchor="middle" x="634.5866" y="-55.8" font-family="Times,serif" font-size="14.00" fill="#000000">_isRouter</text>
</g>
<!-- 1856_typeChecker&#45;&gt;1856__isRouter -->
<g id="edge21" class="edge">
<title>1856_typeChecker-&gt;1856__isRouter</title>
<path fill="none" stroke="#000000" d="M750.3418,-88.5376C729.9821,-83.5183 706.0399,-77.6157 685.2293,-72.4852"/>
<polygon fill="#000000" stroke="#000000" points="685.8413,-69.0313 675.2942,-70.0358 684.1657,-75.8278 685.8413,-69.0313"/>
</g>
<!-- sload(uint256) -->
<g id="node55" class="node">
<title>sload(uint256)</title>
<ellipse fill="none" stroke="#000000" cx="562.3587" cy="-32" rx="67.2177" ry="18"/>
<text text-anchor="middle" x="562.3587" y="-27.8" font-family="Times,serif" font-size="14.00" fill="#000000">sload(uint256)</text>
</g>
<!-- 1856_typeChecker&#45;&gt;sload(uint256) -->
<g id="edge32" class="edge">
<title>1856_typeChecker-&gt;sload(uint256)</title>
<path fill="none" stroke="#000000" d="M753.556,-87.4485C715.3344,-76.364 659.3871,-60.1389 617.8784,-48.1011"/>
<polygon fill="#000000" stroke="#000000" points="618.7694,-44.7154 608.1903,-45.2915 616.8197,-51.4383 618.7694,-44.7154"/>
</g>
<!-- 1856__sharesBuffer -->
<g id="node4" class="node">
<title>1856__sharesBuffer</title>
<ellipse fill="none" stroke="#000000" cx="797.1927" cy="-140" rx="65.3859" ry="18"/>
<text text-anchor="middle" x="797.1927" y="-135.8" font-family="Times,serif" font-size="14.00" fill="#000000">_sharesBuffer</text>
</g>
<!-- mload(uint256) -->
<g id="node48" class="node">
<title>mload(uint256)</title>
<ellipse fill="none" stroke="#000000" cx="351.1153" cy="-32" rx="71.2307" ry="18"/>
<text text-anchor="middle" x="351.1153" y="-27.8" font-family="Times,serif" font-size="14.00" fill="#000000">mload(uint256)</text>
</g>
<!-- 1856__sharesBuffer&#45;&gt;mload(uint256) -->
<g id="edge43" class="edge">
<title>1856__sharesBuffer-&gt;mload(uint256)</title>
<path fill="none" stroke="#000000" d="M747.7502,-128.0295C665.7591,-108.1786 501.8592,-68.4967 412.5611,-46.8767"/>
<polygon fill="#000000" stroke="#000000" points="413.384,-43.4749 402.8412,-44.5234 411.7368,-50.2783 413.384,-43.4749"/>
</g>
<!-- mstore(uint256,uint256) -->
<g id="node52" class="node">
<title>mstore(uint256,uint256)</title>
<ellipse fill="none" stroke="#000000" cx="351.1811" cy="-72" rx="105.3625" ry="18"/>
<text text-anchor="middle" x="351.1811" y="-67.8" font-family="Times,serif" font-size="14.00" fill="#000000">mstore(uint256,uint256)</text>
</g>
<!-- 1856__sharesBuffer&#45;&gt;mstore(uint256,uint256) -->
<g id="edge53" class="edge">
<title>1856__sharesBuffer-&gt;mstore(uint256,uint256)</title>
<path fill="none" stroke="#000000" d="M739.7975,-131.2494C663.7921,-119.6614 528.9883,-99.1089 439.8428,-85.5176"/>
<polygon fill="#000000" stroke="#000000" points="440.1586,-82.0254 429.7453,-83.9781 439.1035,-88.9454 440.1586,-82.0254"/>
</g>
<!-- 1856_creatorCheck -->
<g id="node5" class="node">
<title>1856_creatorCheck</title>
<ellipse fill="none" stroke="#000000" cx="288.509" cy="-100" rx="62.518" ry="18"/>
<text text-anchor="middle" x="288.509" y="-95.8" font-family="Times,serif" font-size="14.00" fill="#000000">creatorCheck</text>
</g>
<!-- 1856_creatorCheck&#45;&gt;1856__isRouter -->
<g id="edge22" class="edge">
<title>1856_creatorCheck-&gt;1856__isRouter</title>
<path fill="none" stroke="#000000" d="M346.825,-93.2598C411.1482,-85.8252 513.9645,-73.9416 577.7075,-66.5741"/>
<polygon fill="#000000" stroke="#000000" points="578.4446,-70.0123 587.9766,-65.3872 577.6408,-63.0586 578.4446,-70.0123"/>
</g>
<!-- revert(uint256,uint256) -->
<g id="node47" class="node">
<title>revert(uint256,uint256)</title>
<ellipse fill="none" stroke="#000000" cx="976.4149" cy="-72" rx="101.3298" ry="18"/>
<text text-anchor="middle" x="976.4149" y="-67.8" font-family="Times,serif" font-size="14.00" fill="#000000">revert(uint256,uint256)</text>
</g>
<!-- 1856_creatorCheck&#45;&gt;revert(uint256,uint256) -->
<g id="edge65" class="edge">
<title>1856_creatorCheck-&gt;revert(uint256,uint256)</title>
<path fill="none" stroke="#000000" d="M350.4651,-97.4782C467.2158,-92.7261 721.1555,-82.3899 867.1778,-76.4463"/>
<polygon fill="#000000" stroke="#000000" points="867.6522,-79.93 877.5016,-76.0261 867.3675,-72.9358 867.6522,-79.93"/>
</g>
<!-- 1856_creatorCheck&#45;&gt;mstore(uint256,uint256) -->
<g id="edge34" class="edge">
<title>1856_creatorCheck-&gt;mstore(uint256,uint256)</title>
<path fill="none" stroke="#000000" d="M322.413,-84.8527C322.4707,-84.8269 322.5284,-84.8012 322.586,-84.7754"/>
<polygon fill="#000000" stroke="#000000" points="315.0571,-91.9761 322.759,-84.6981 312.1995,-85.5846 315.0571,-91.9761"/>
</g>
<!-- 1856_creatorCheck&#45;&gt;sload(uint256) -->
<g id="edge63" class="edge">
<title>1856_creatorCheck-&gt;sload(uint256)</title>
<path fill="none" stroke="#000000" d="M335.8973,-88.2329C382.2533,-76.7222 452.9905,-59.1574 503.0546,-46.7259"/>
<polygon fill="#000000" stroke="#000000" points="503.9166,-50.1182 512.7784,-44.3114 502.2296,-43.3245 503.9166,-50.1182"/>
</g>
<!-- 1856_setRouter -->
<g id="node6" class="node">
<title>1856_setRouter</title>
<ellipse fill="none" stroke="#000000" cx="797.0448" cy="-60" rx="48.0897" ry="18"/>
<text text-anchor="middle" x="797.0448" y="-55.8" font-family="Times,serif" font-size="14.00" fill="#000000">setRouter</text>
</g>
<!-- 1856_setRouter&#45;&gt;1856_onlyOwner -->
<g id="edge20" class="edge">
<title>1856_setRouter-&gt;1856_onlyOwner</title>
<path fill="none" stroke="#000000" d="M796.9804,-78.2254C796.9112,-97.8096 796.8003,-129.1816 796.7199,-151.9224"/>
<polygon fill="#000000" stroke="#000000" points="793.2197,-151.9839 796.6843,-161.9963 800.2197,-152.0087 793.2197,-151.9839"/>
</g>
<!-- 1856_setRouter&#45;&gt;sstore(uint256,uint256) -->
<g id="edge52" class="edge">
<title>1856_setRouter-&gt;sstore(uint256,uint256)</title>
<path fill="none" stroke="#000000" d="M769.5038,-71.9656C769.4907,-71.9713 769.4792,-71.9762 769.4693,-71.9805"/>
<polygon fill="#000000" stroke="#000000" points="777.2169,-64.7731 769.4446,-71.9913 780.0218,-71.1955 777.2169,-64.7731"/>
</g>
<!-- 1856_setRouter&#45;&gt;require(bool,string) -->
<g id="edge30" class="edge">
<title>1856_setRouter-&gt;require(bool,string)</title>
<path fill="none" stroke="#000000" d="M845.2107,-61.5565C902.5634,-63.4098 999.7396,-66.5501 1072.5893,-68.9043"/>
<polygon fill="#000000" stroke="#000000" points="1072.5927,-72.4061 1082.7005,-69.231 1072.8188,-65.4098 1072.5927,-72.4061"/>
</g>
<!-- 1856_splitterCheck -->
<g id="node7" class="node">
<title>1856_splitterCheck</title>
<ellipse fill="none" stroke="#000000" cx="99.5273" cy="-100" rx="62.5547" ry="18"/>
<text text-anchor="middle" x="99.5273" y="-95.8" font-family="Times,serif" font-size="14.00" fill="#000000">splitterCheck</text>
</g>
<!-- 1856_splitterCheck&#45;&gt;1856__sharesBuffer -->
<g id="edge14" class="edge">
<title>1856_splitterCheck-&gt;1856__sharesBuffer</title>
<path fill="none" stroke="#000000" d="M161.1344,-103.5322C289.457,-110.8894 584.9307,-127.8302 723.2508,-135.7606"/>
<polygon fill="#000000" stroke="#000000" points="723.1509,-139.2605 733.3349,-136.3388 723.5517,-132.272 723.1509,-139.2605"/>
</g>
<!-- 1856__payeesBuffer -->
<g id="node20" class="node">
<title>1856__payeesBuffer</title>
<ellipse fill="none" stroke="#000000" cx="634.3375" cy="-140" rx="67.1753" ry="18"/>
<text text-anchor="middle" x="634.3375" y="-135.8" font-family="Times,serif" font-size="14.00" fill="#000000">_payeesBuffer</text>
</g>
<!-- 1856_splitterCheck&#45;&gt;1856__payeesBuffer -->
<g id="edge13" class="edge">
<title>1856_splitterCheck-&gt;1856__payeesBuffer</title>
<path fill="none" stroke="#000000" d="M160.0965,-104.5301C258.3858,-111.8815 452.3685,-126.39 559.2651,-134.3851"/>
<polygon fill="#000000" stroke="#000000" points="559.0987,-137.8824 569.332,-135.1381 559.6209,-130.9019 559.0987,-137.8824"/>
</g>
<!-- 1856_splitterCheck&#45;&gt;1856_nonReentrant -->
<g id="edge17" class="edge">
<title>1856_splitterCheck-&gt;1856_nonReentrant</title>
<path fill="none" stroke="#000000" d="M135.0159,-115.0474C164.8432,-127.6944 207.7387,-145.8823 240.5552,-159.7967"/>
<polygon fill="#000000" stroke="#000000" points="239.3836,-163.1015 249.9566,-163.783 242.1162,-156.6569 239.3836,-163.1015"/>
</g>
<!-- 1856_splitterCheck&#45;&gt;1856_isThisOg -->
<g id="edge16" class="edge">
<title>1856_splitterCheck-&gt;1856_isThisOg</title>
<path fill="none" stroke="#000000" d="M150.1913,-110.7193C172.9747,-115.5397 200.1263,-121.2843 224.3208,-126.4032"/>
<polygon fill="#000000" stroke="#000000" points="223.6257,-129.8336 234.1336,-128.4794 225.0747,-122.9852 223.6257,-129.8336"/>
</g>
<!-- 1856_splitterCheck&#45;&gt;1856_whenNotPaused -->
<g id="edge15" class="edge">
<title>1856_splitterCheck-&gt;1856_whenNotPaused</title>
<path fill="none" stroke="#000000" d="M99.6191,-118.1532C99.6692,-128.0749 99.7324,-140.5833 99.7889,-151.7508"/>
<polygon fill="#000000" stroke="#000000" points="96.2897,-151.9365 99.8403,-161.9186 103.2896,-151.901 96.2897,-151.9365"/>
</g>
<!-- 1856_splitterCheck&#45;&gt;revert(uint256,uint256) -->
<g id="edge35" class="edge">
<title>1856_splitterCheck-&gt;revert(uint256,uint256)</title>
<path fill="none" stroke="#000000" d="M161.888,-98.0088C309.135,-93.307 679.9673,-81.4659 866.1603,-75.5206"/>
<polygon fill="#000000" stroke="#000000" points="866.3642,-79.0159 876.2474,-75.1985 866.1407,-72.0195 866.3642,-79.0159"/>
</g>
<!-- 1856_splitterCheck&#45;&gt;mstore(uint256,uint256) -->
<g id="edge39" class="edge">
<title>1856_splitterCheck-&gt;mstore(uint256,uint256)</title>
<path fill="none" stroke="#000000" d="M157.8943,-93.5059C185.9321,-90.3863 220.3147,-86.5607 252.2679,-83.0055"/>
<polygon fill="#000000" stroke="#000000" points="252.9943,-86.4463 262.5459,-81.8619 252.2201,-79.4893 252.9943,-86.4463"/>
</g>
<!-- keccak256(bytes) -->
<g id="node54" class="node">
<title>keccak256(bytes)</title>
<ellipse fill="none" stroke="#000000" cx="122.1382" cy="-32" rx="79.2767" ry="18"/>
<text text-anchor="middle" x="122.1382" y="-27.8" font-family="Times,serif" font-size="14.00" fill="#000000">keccak256(bytes)</text>
</g>
<!-- 1856_splitterCheck&#45;&gt;keccak256(bytes) -->
<g id="edge45" class="edge">
<title>1856_splitterCheck-&gt;keccak256(bytes)</title>
<path fill="none" stroke="#000000" d="M105.5866,-81.7772C107.817,-75.0697 110.3974,-67.3094 112.8473,-59.9415"/>
<polygon fill="#000000" stroke="#000000" points="116.2281,-60.8666 116.0622,-50.2731 109.5857,-58.6579 116.2281,-60.8666"/>
</g>
<!-- 1856__limiter&#45;&gt;revert(uint256,uint256) -->
<g id="edge37" class="edge">
<title>1856__limiter-&gt;revert(uint256,uint256)</title>
<path fill="none" stroke="#000000" d="M672.937,-25.9651C725.3187,-33.9109 819.4591,-48.1912 889.0455,-58.7468"/>
<polygon fill="#000000" stroke="#000000" points="888.7144,-62.2366 899.1263,-60.276 889.7643,-55.3157 888.7144,-62.2366"/>
</g>
<!-- 1856__limiter&#45;&gt;mstore(uint256,uint256) -->
<g id="edge62" class="edge">
<title>1856__limiter-&gt;mstore(uint256,uint256)</title>
<path fill="none" stroke="#000000" d="M595.2293,-27.0671C553.7842,-34.6977 486.5291,-47.0804 433.1065,-56.9163"/>
<polygon fill="#000000" stroke="#000000" points="432.1613,-53.5314 422.9603,-58.7844 433.4288,-60.4157 432.1613,-53.5314"/>
</g>
<!-- 1856_setMarket -->
<g id="node9" class="node">
<title>1856_setMarket</title>
<ellipse fill="none" stroke="#000000" cx="464.6469" cy="-60" rx="49.7942" ry="18"/>
<text text-anchor="middle" x="464.6469" y="-55.8" font-family="Times,serif" font-size="14.00" fill="#000000">setMarket</text>
</g>
<!-- 1856_setMarket&#45;&gt;1856_onlyOwner -->
<g id="edge2" class="edge">
<title>1856_setMarket-&gt;1856_onlyOwner</title>
<path fill="none" stroke="#000000" d="M499.8596,-72.7285C558.5483,-93.943 676.6376,-136.6292 744.8277,-161.2782"/>
<polygon fill="#000000" stroke="#000000" points="743.9192,-164.6714 754.5134,-164.7793 746.2988,-158.0882 743.9192,-164.6714"/>
</g>
<!-- 1856_setMarket&#45;&gt;sstore(uint256,uint256) -->
<g id="edge55" class="edge">
<title>1856_setMarket-&gt;sstore(uint256,uint256)</title>
<path fill="none" stroke="#000000" d="M514.293,-61.9547C553.6653,-63.5049 610.1651,-65.7295 659.9926,-67.6913"/>
<polygon fill="#000000" stroke="#000000" points="660.0581,-71.1965 670.1881,-68.0928 660.3336,-64.202 660.0581,-71.1965"/>
</g>
<!-- 1856_setMarket&#45;&gt;require(bool,string) -->
<g id="edge42" class="edge">
<title>1856_setMarket-&gt;require(bool,string)</title>
<path fill="none" stroke="#000000" d="M514.413,-60.8486C630.309,-62.8248 919.8832,-67.7626 1071.8389,-70.3537"/>
<polygon fill="#000000" stroke="#000000" points="1072.0334,-73.8574 1082.0917,-70.5285 1072.1528,-66.8584 1072.0334,-73.8574"/>
</g>
<!-- 1856__isRouter&#45;&gt;revert(uint256,uint256) -->
<g id="edge58" class="edge">
<title>1856__isRouter-&gt;revert(uint256,uint256)</title>
<path fill="none" stroke="#000000" d="M683.1992,-61.7066C730.6909,-63.3738 804.6391,-65.9698 866.3891,-68.1375"/>
<polygon fill="#000000" stroke="#000000" points="866.4653,-71.6422 876.5819,-68.4953 866.7109,-64.6466 866.4653,-71.6422"/>
</g>
<!-- 1856__isRouter&#45;&gt;mstore(uint256,uint256) -->
<g id="edge47" class="edge">
<title>1856__isRouter-&gt;mstore(uint256,uint256)</title>
<path fill="none" stroke="#000000" d="M586.1894,-62.0492C552.5266,-63.4746 506.2172,-65.4354 463.6023,-67.2398"/>
<polygon fill="#000000" stroke="#000000" points="463.2758,-63.7504 453.4328,-67.6704 463.572,-70.7442 463.2758,-63.7504"/>
</g>
<!-- 1856__isRouter&#45;&gt;sload(uint256) -->
<g id="edge49" class="edge">
<title>1856__isRouter-&gt;sload(uint256)</title>
<path fill="none" stroke="#000000" d="M601.01,-46.9837C600.9364,-46.9551 600.8627,-46.9265 600.789,-46.898"/>
<polygon fill="#000000" stroke="#000000" points="611.158,-47.166 600.5678,-46.8122 608.626,-53.6929 611.158,-47.166"/>
</g>
<!-- 1856_creatorAuth -->
<g id="node11" class="node">
<title>1856_creatorAuth</title>
<ellipse fill="none" stroke="#000000" cx="954.1503" cy="-100" rx="57.3011" ry="18"/>
<text text-anchor="middle" x="954.1503" y="-95.8" font-family="Times,serif" font-size="14.00" fill="#000000">creatorAuth</text>
</g>
<!-- 1856__userRender -->
<g id="node18" class="node">
<title>1856__userRender</title>
<ellipse fill="none" stroke="#000000" cx="633.8359" cy="-100" rx="59.6723" ry="18"/>
<text text-anchor="middle" x="633.8359" y="-95.8" font-family="Times,serif" font-size="14.00" fill="#000000">_userRender</text>
</g>
<!-- 1856_creatorAuth&#45;&gt;1856__userRender -->
<g id="edge4" class="edge">
<title>1856_creatorAuth-&gt;1856__userRender</title>
<path fill="none" stroke="#000000" d="M896.8846,-100C842.902,-100 761.8743,-100 704.0257,-100"/>
<polygon fill="#000000" stroke="#000000" points="703.8673,-96.5001 693.8673,-100 703.8673,-103.5001 703.8673,-96.5001"/>
</g>
<!-- 1856__isMarket -->
<g id="node22" class="node">
<title>1856__isMarket</title>
<ellipse fill="none" stroke="#000000" cx="288.1887" cy="-60" rx="50.378" ry="18"/>
<text text-anchor="middle" x="288.1887" y="-55.8" font-family="Times,serif" font-size="14.00" fill="#000000">_isMarket</text>
</g>
<!-- 1856_creatorAuth&#45;&gt;1856__isMarket -->
<g id="edge10" class="edge">
<title>1856_creatorAuth-&gt;1856__isMarket</title>
<path fill="none" stroke="#000000" d="M897.9448,-96.6241C773.529,-89.1512 475.7836,-71.2676 348.0497,-63.5955"/>
<polygon fill="#000000" stroke="#000000" points="348.2449,-60.101 338.053,-62.995 347.8251,-67.0884 348.2449,-60.101"/>
</g>
<!-- 1856_getColID -->
<g id="node12" class="node">
<title>1856_getColID</title>
<ellipse fill="none" stroke="#000000" cx="98.9739" cy="-20" rx="46.9477" ry="18"/>
<text text-anchor="middle" x="98.9739" y="-15.8" font-family="Times,serif" font-size="14.00" fill="#000000">getColID</text>
</g>
<!-- 1856__setPaymentToken -->
<g id="node13" class="node">
<title>1856__setPaymentToken</title>
<ellipse fill="none" stroke="#000000" cx="465.057" cy="-180" rx="85.114" ry="18"/>
<text text-anchor="middle" x="465.057" y="-175.8" font-family="Times,serif" font-size="14.00" fill="#000000">_setPaymentToken</text>
</g>
<!-- 1856_constructor -->
<g id="node14" class="node">
<title>1856_constructor</title>
<ellipse fill="none" stroke="#000000" cx="99.4763" cy="-60" rx="54.4527" ry="18"/>
<text text-anchor="middle" x="99.4763" y="-55.8" font-family="Times,serif" font-size="14.00" fill="#000000">constructor</text>
</g>
<!-- 1856_constructor&#45;&gt;1856_setSigner -->
<g id="edge3" class="edge">
<title>1856_constructor-&gt;1856_setSigner</title>
<path fill="none" stroke="#000000" d="M145.8324,-50.2149C173.6685,-44.3391 209.122,-36.8554 237.7805,-30.806"/>
<polygon fill="#000000" stroke="#000000" points="238.5488,-34.221 247.6103,-28.7311 237.103,-27.3719 238.5488,-34.221"/>
</g>
<!-- 1856_constructor&#45;&gt;1856_setMarket -->
<g id="edge24" class="edge">
<title>1856_constructor-&gt;1856_setMarket</title>
<path fill="none" stroke="#000000" d="M154.1461,-60C221.33,-60 334.9487,-60 404.533,-60"/>
<polygon fill="#000000" stroke="#000000" points="404.889,-63.5001 414.8889,-60 404.8889,-56.5001 404.889,-63.5001"/>
</g>
<!-- 1856_constructor&#45;&gt;1856__setPaymentToken -->
<g id="edge19" class="edge">
<title>1856_constructor-&gt;1856__setPaymentToken</title>
<path fill="none" stroke="#000000" d="M138.2538,-72.7285C203.1486,-94.0299 333.9946,-136.9794 408.9413,-161.5803"/>
<polygon fill="#000000" stroke="#000000" points="408.0943,-164.986 418.6871,-164.7793 410.2775,-158.3351 408.0943,-164.986"/>
</g>
<!-- 1856_pause -->
<g id="node15" class="node">
<title>1856_pause</title>
<ellipse fill="none" stroke="#000000" cx="797.0225" cy="-20" rx="33.045" ry="18"/>
<text text-anchor="middle" x="797.0225" y="-15.8" font-family="Times,serif" font-size="14.00" fill="#000000">pause</text>
</g>
<!-- 1856_pause&#45;&gt;1856_onlyOwner -->
<g id="edge6" class="edge">
<title>1856_pause-&gt;1856_onlyOwner</title>
<path fill="none" stroke="#000000" d="M796.9772,-38.043C796.9078,-65.6513 796.7748,-118.6254 796.6923,-151.4745"/>
<polygon fill="#000000" stroke="#000000" points="793.1916,-151.7686 796.6664,-161.7774 800.1916,-151.7863 793.1916,-151.7686"/>
</g>
<!-- 1856__pause -->
<g id="node28" class="node">
<title>1856__pause</title>
<ellipse fill="none" stroke="#000000" cx="464.9933" cy="-100" rx="61.9866" ry="18"/>
<text text-anchor="middle" x="464.9933" y="-95.8" font-family="Times,serif" font-size="14.00" fill="#000000">1856__pause</text>
</g>
<!-- 1856_pause&#45;&gt;1856__pause -->
<g id="edge8" class="edge">
<title>1856_pause-&gt;1856__pause</title>
<path fill="none" stroke="#000000" d="M766.6769,-27.3115C711.5177,-40.6017 593.9738,-68.9231 522.99,-86.0261"/>
<polygon fill="#000000" stroke="#000000" points="521.7697,-82.7199 512.8678,-88.465 523.4094,-89.5252 521.7697,-82.7199"/>
</g>
<!-- 1856_getIDsLength -->
<g id="node16" class="node">
<title>1856_getIDsLength</title>
<ellipse fill="none" stroke="#000000" cx="954.1323" cy="-140" rx="64.2649" ry="18"/>
<text text-anchor="middle" x="954.1323" y="-135.8" font-family="Times,serif" font-size="14.00" fill="#000000">getIDsLength</text>
</g>
<!-- 1856_getDeployedAddr -->
<g id="node17" class="node">
<title>1856_getDeployedAddr</title>
<ellipse fill="none" stroke="#000000" cx="634.2208" cy="-180" rx="80.4422" ry="18"/>
<text text-anchor="middle" x="634.2208" y="-175.8" font-family="Times,serif" font-size="14.00" fill="#000000">getDeployedAddr</text>
</g>
<!-- 1856_getDeployedAddr&#45;&gt;keccak256(bytes) -->
<g id="edge38" class="edge">
<title>1856_getDeployedAddr-&gt;keccak256(bytes)</title>
<path fill="none" stroke="#000000" d="M584.6549,-165.6747C489.7973,-138.2593 282.9853,-78.4873 181.1695,-49.061"/>
<polygon fill="#000000" stroke="#000000" points="181.9341,-45.6388 171.3555,-46.2246 179.9905,-52.3635 181.9341,-45.6388"/>
</g>
<!-- 1856__userRender&#45;&gt;mload(uint256) -->
<g id="edge48" class="edge">
<title>1856__userRender-&gt;mload(uint256)</title>
<path fill="none" stroke="#000000" d="M586.833,-88.6948C539.1872,-77.2351 465.2215,-59.4448 412.8691,-46.853"/>
<polygon fill="#000000" stroke="#000000" points="413.5703,-43.422 403.0291,-44.4863 411.9333,-50.2279 413.5703,-43.422"/>
</g>
<!-- keccak256(uint256,uint256) -->
<g id="node49" class="node">
<title>keccak256(uint256,uint256)</title>
<ellipse fill="none" stroke="#000000" cx="122.189" cy="-72" rx="120.3782" ry="18"/>
<text text-anchor="middle" x="122.189" y="-67.8" font-family="Times,serif" font-size="14.00" fill="#000000">keccak256(uint256,uint256)</text>
</g>
<!-- 1856__userRender&#45;&gt;keccak256(uint256,uint256) -->
<g id="edge56" class="edge">
<title>1856__userRender-&gt;keccak256(uint256,uint256)</title>
<path fill="none" stroke="#000000" d="M574.8938,-96.7744C494.8527,-92.3941 349.8163,-84.457 245.4509,-78.7455"/>
<polygon fill="#000000" stroke="#000000" points="245.3405,-75.2343 235.1641,-78.1826 244.9579,-82.2239 245.3405,-75.2343"/>
</g>
<!-- 1856__userRender&#45;&gt;mstore(uint256,uint256) -->
<g id="edge64" class="edge">
<title>1856__userRender-&gt;mstore(uint256,uint256)</title>
<path fill="none" stroke="#000000" d="M576.9765,-94.3675C541.3068,-90.834 494.2981,-86.1773 452.4122,-82.028"/>
<polygon fill="#000000" stroke="#000000" points="452.742,-78.5437 442.4456,-81.0407 452.0519,-85.5096 452.742,-78.5437"/>
</g>
<!-- 1856__userRender&#45;&gt;sload(uint256) -->
<g id="edge50" class="edge">
<title>1856__userRender-&gt;sload(uint256)</title>
<path fill="none" stroke="#000000" d="M615.4288,-82.4883C607.156,-74.618 597.2485,-65.1925 588.2457,-56.6277"/>
<polygon fill="#000000" stroke="#000000" points="590.6095,-54.0456 580.9519,-49.6887 585.7846,-59.1172 590.6095,-54.0456"/>
</g>
<!-- 1856_setOwner -->
<g id="node19" class="node">
<title>1856_setOwner</title>
<ellipse fill="none" stroke="#000000" cx="954.0352" cy="-60" rx="48.0703" ry="18"/>
<text text-anchor="middle" x="954.0352" y="-55.8" font-family="Times,serif" font-size="14.00" fill="#000000">setOwner</text>
</g>
<!-- 1856_setOwner&#45;&gt;1856_onlyOwner -->
<g id="edge9" class="edge">
<title>1856_setOwner-&gt;1856_onlyOwner</title>
<path fill="none" stroke="#000000" d="M932.8055,-76.1837C905.7273,-96.826 858.692,-132.6819 827.6079,-156.3778"/>
<polygon fill="#000000" stroke="#000000" points="825.1243,-153.8701 819.2934,-162.7161 829.3681,-159.437 825.1243,-153.8701"/>
</g>
<!-- 1856_setOwner&#45;&gt;sstore(uint256,uint256) -->
<g id="edge40" class="edge">
<title>1856_setOwner-&gt;sstore(uint256,uint256)</title>
<path fill="none" stroke="#000000" d="M906.4933,-63.0903C896.678,-63.7283 885.9717,-64.4242 875.0101,-65.1368"/>
<polygon fill="#000000" stroke="#000000" points="874.6418,-61.6532 864.8899,-65.7946 875.0959,-68.6385 874.6418,-61.6532"/>
</g>
<!-- 1856_setOwner&#45;&gt;require(bool,string) -->
<g id="edge60" class="edge">
<title>1856_setOwner-&gt;require(bool,string)</title>
<path fill="none" stroke="#000000" d="M1001.6069,-62.6632C1023.1664,-63.8701 1049.444,-65.3412 1074.7054,-66.7554"/>
<polygon fill="#000000" stroke="#000000" points="1074.518,-70.2503 1084.6981,-67.3148 1074.9094,-63.2613 1074.518,-70.2503"/>
</g>
<!-- 1856__payeesBuffer&#45;&gt;mload(uint256) -->
<g id="edge59" class="edge">
<title>1856__payeesBuffer-&gt;mload(uint256)</title>
<path fill="none" stroke="#000000" d="M595.5505,-125.2095C544.8146,-105.8626 455.8734,-71.947 400.4124,-50.7983"/>
<polygon fill="#000000" stroke="#000000" points="401.3909,-47.4256 390.8001,-47.1329 398.8968,-53.9662 401.3909,-47.4256"/>
</g>
<!-- 1856__payeesBuffer&#45;&gt;mstore(uint256,uint256) -->
<g id="edge31" class="edge">
<title>1856__payeesBuffer-&gt;mstore(uint256,uint256)</title>
<path fill="none" stroke="#000000" d="M584.0411,-127.9213C539.0464,-117.1158 472.6088,-101.1609 422.2019,-89.0556"/>
<polygon fill="#000000" stroke="#000000" points="422.8862,-85.6205 412.3453,-86.6886 421.2516,-92.427 422.8862,-85.6205"/>
</g>
<!-- 1856__royaltyLocker&#45;&gt;revert(uint256,uint256) -->
<g id="edge54" class="edge">
<title>1856__royaltyLocker-&gt;revert(uint256,uint256)</title>
<path fill="none" stroke="#000000" d="M527.3268,-131.6619C616.8445,-119.7693 781.7428,-97.8624 884.8817,-84.1603"/>
<polygon fill="#000000" stroke="#000000" points="885.5227,-87.606 894.9747,-82.8194 884.6008,-80.6669 885.5227,-87.606"/>
</g>
<!-- 1856__royaltyLocker&#45;&gt;mstore(uint256,uint256) -->
<g id="edge57" class="edge">
<title>1856__royaltyLocker-&gt;mstore(uint256,uint256)</title>
<path fill="none" stroke="#000000" d="M436.8273,-123.3653C422.4686,-114.7539 404.7224,-104.1108 389.1142,-94.75"/>
<polygon fill="#000000" stroke="#000000" points="390.5893,-91.5534 380.2132,-89.4117 386.989,-97.5566 390.5893,-91.5534"/>
</g>
<!-- 1856__isMarket&#45;&gt;revert(uint256,uint256) -->
<g id="edge46" class="edge">
<title>1856__isMarket-&gt;revert(uint256,uint256)</title>
<path fill="none" stroke="#000000" d="M338.5167,-60.8775C448.7017,-62.7987 713.5119,-67.416 865.0311,-70.0579"/>
<polygon fill="#000000" stroke="#000000" points="865.2333,-73.5619 875.2928,-70.2368 865.3554,-66.5629 865.2333,-73.5619"/>
</g>
<!-- 1856__isMarket&#45;&gt;mstore(uint256,uint256) -->
<g id="edge44" class="edge">
<title>1856__isMarket-&gt;mstore(uint256,uint256)</title>
<path fill="none" stroke="#000000" d="M332.622,-68.4645C332.7034,-68.48 332.7847,-68.4955 332.8659,-68.511"/>
<polygon fill="#000000" stroke="#000000" points="322.6294,-70.1208 333.1089,-68.5573 323.9416,-63.2444 322.6294,-70.1208"/>
</g>
<!-- 1856__isMarket&#45;&gt;sload(uint256) -->
<g id="edge33" class="edge">
<title>1856__isMarket-&gt;sload(uint256)</title>
<path fill="none" stroke="#000000" d="M336.5736,-55.0586C378.8402,-50.7421 440.8217,-44.4121 489.156,-39.4759"/>
<polygon fill="#000000" stroke="#000000" points="489.6582,-42.9429 499.2509,-38.445 488.947,-35.9792 489.6582,-42.9429"/>
</g>
<!-- 1856_unpause -->
<g id="node23" class="node">
<title>1856_unpause</title>
<ellipse fill="none" stroke="#000000" cx="464.6794" cy="-20" rx="42.8596" ry="18"/>
<text text-anchor="middle" x="464.6794" y="-15.8" font-family="Times,serif" font-size="14.00" fill="#000000">unpause</text>
</g>
<!-- 1856_unpause&#45;&gt;1856_onlyOwner -->
<g id="edge25" class="edge">
<title>1856_unpause-&gt;1856_onlyOwner</title>
<path fill="none" stroke="#000000" d="M492.9805,-33.6415C551.1544,-61.6821 684.4807,-125.9471 753.4806,-159.2059"/>
<polygon fill="#000000" stroke="#000000" points="752.2474,-162.4969 762.7753,-163.6861 755.2869,-156.1912 752.2474,-162.4969"/>
</g>
<!-- 1856__unpause -->
<g id="node29" class="node">
<title>1856__unpause</title>
<ellipse fill="none" stroke="#000000" cx="99.6503" cy="-140" rx="71.8008" ry="18"/>
<text text-anchor="middle" x="99.6503" y="-135.8" font-family="Times,serif" font-size="14.00" fill="#000000">1856__unpause</text>
</g>
<!-- 1856_unpause&#45;&gt;1856__unpause -->
<g id="edge11" class="edge">
<title>1856_unpause-&gt;1856__unpause</title>
<path fill="none" stroke="#000000" d="M430.9926,-31.0742C367.4816,-51.9529 229.5757,-97.2882 153.219,-122.3898"/>
<polygon fill="#000000" stroke="#000000" points="151.7255,-119.1964 143.3187,-125.6444 153.9116,-125.8463 151.7255,-119.1964"/>
</g>
<!-- 1856_name -->
<g id="node24" class="node">
<title>1856_name</title>
<ellipse fill="none" stroke="#000000" cx="953.9506" cy="-20" rx="31.9012" ry="18"/>
<text text-anchor="middle" x="953.9506" y="-15.8" font-family="Times,serif" font-size="14.00" fill="#000000">name</text>
</g>
<!-- 1856_name&#45;&gt;mstore(uint256,uint256) -->
<g id="edge29" class="edge">
<title>1856_name-&gt;mstore(uint256,uint256)</title>
<path fill="none" stroke="#000000" d="M921.9686,-22.759C835.7164,-30.1999 595.4141,-50.9304 455.6348,-62.9889"/>
<polygon fill="#000000" stroke="#000000" points="454.9959,-59.531 445.3338,-63.8776 455.5976,-66.5051 454.9959,-59.531"/>
</g>
<!-- return(uint256,uint256) -->
<g id="node56" class="node">
<title>return(uint256,uint256)</title>
<ellipse fill="none" stroke="#000000" cx="561.9566" cy="-72" rx="101.9133" ry="18"/>
<text text-anchor="middle" x="561.9566" y="-67.8" font-family="Times,serif" font-size="14.00" fill="#000000">return(uint256,uint256)</text>
</g>
<!-- 1856_name&#45;&gt;return(uint256,uint256) -->
<g id="edge36" class="edge">
<title>1856_name-&gt;return(uint256,uint256)</title>
<path fill="none" stroke="#000000" d="M922.5347,-24.1675C864.8646,-31.8177 740.1046,-48.3678 653.6113,-59.8415"/>
<polygon fill="#000000" stroke="#000000" points="652.9768,-56.395 643.5239,-61.1797 653.8974,-63.3342 652.9768,-56.395"/>
</g>
<!-- 10593_setOwner -->
<g id="node31" class="node">
<title>10593_setOwner</title>
<ellipse fill="none" stroke="#000000" cx="85.0352" cy="-20" rx="48.0703" ry="18"/>
<text text-anchor="middle" x="85.0352" y="-15.8" font-family="Times,serif" font-size="14.00" fill="#000000">setOwner</text>
</g>
<!-- 10593_onlyOwner -->
<g id="node33" class="node">
<title>10593_onlyOwner</title>
<ellipse fill="none" stroke="#000000" cx="85.4491" cy="-60" rx="83.3982" ry="18"/>
<text text-anchor="middle" x="85.4491" y="-55.8" font-family="Times,serif" font-size="14.00" fill="#000000">10593_onlyOwner</text>
</g>
<!-- 10593_setOwner&#45;&gt;10593_onlyOwner -->
<g id="edge26" class="edge">
<title>10593_setOwner-&gt;10593_onlyOwner</title>
<path fill="none" stroke="#000000" d="M85.2228,-38.1274C85.2243,-38.2721 85.2258,-38.417 85.2273,-38.5619"/>
<polygon fill="#000000" stroke="#000000" points="81.6552,-31.6466 85.2588,-41.6098 88.6548,-31.574 81.6552,-31.6466"/>
</g>
<!-- 10593_constructor -->
<g id="node32" class="node">
<title>10593_constructor</title>
<ellipse fill="none" stroke="#000000" cx="226.4763" cy="-60" rx="54.4527" ry="18"/>
<text text-anchor="middle" x="226.4763" y="-55.8" font-family="Times,serif" font-size="14.00" fill="#000000">constructor</text>
</g>
<!-- 10533_creatorCheck -->
<g id="node34" class="node">
<title>10533_creatorCheck</title>
<ellipse fill="none" stroke="#000000" cx="64.509" cy="-60" rx="62.518" ry="18"/>
<text text-anchor="middle" x="64.509" y="-55.8" font-family="Times,serif" font-size="14.00" fill="#000000">creatorCheck</text>
</g>
<!-- 10533_typeChecker -->
<g id="node35" class="node">
<title>10533_typeChecker</title>
<ellipse fill="none" stroke="#000000" cx="190.8359" cy="-60" rx="59.6723" ry="18"/>
<text text-anchor="middle" x="190.8359" y="-55.8" font-family="Times,serif" font-size="14.00" fill="#000000">typeChecker</text>
</g>
<!-- 10533_creatorAuth -->
<g id="node36" class="node">
<title>10533_creatorAuth</title>
<ellipse fill="none" stroke="#000000" cx="64.1503" cy="-20" rx="57.3011" ry="18"/>
<text text-anchor="middle" x="64.1503" y="-15.8" font-family="Times,serif" font-size="14.00" fill="#000000">creatorAuth</text>
</g>
<!-- 10533_getColID -->
<g id="node37" class="node">
<title>10533_getColID</title>
<ellipse fill="none" stroke="#000000" cx="189.9739" cy="-20" rx="46.9477" ry="18"/>
<text text-anchor="middle" x="189.9739" y="-15.8" font-family="Times,serif" font-size="14.00" fill="#000000">getColID</text>
</g>
<!-- 11366__pause -->
<g id="node38" class="node">
<title>11366__pause</title>
<ellipse fill="none" stroke="#000000" cx="445.8509" cy="-20" rx="37.7025" ry="18"/>
<text text-anchor="middle" x="445.8509" y="-15.8" font-family="Times,serif" font-size="14.00" fill="#000000">_pause</text>
</g>
<!-- 11366_whenNotPaused -->
<g id="node43" class="node">
<title>11366_whenNotPaused</title>
<ellipse fill="none" stroke="#000000" cx="104.7601" cy="-60" rx="102.5208" ry="18"/>
<text text-anchor="middle" x="104.7601" y="-55.8" font-family="Times,serif" font-size="14.00" fill="#000000">11366_whenNotPaused</text>
</g>
<!-- 11366__pause&#45;&gt;11366_whenNotPaused -->
<g id="edge28" class="edge">
<title>11366__pause-&gt;11366_whenNotPaused</title>
<path fill="none" stroke="#000000" d="M409.0242,-24.3187C359.5215,-30.1239 269.7385,-40.6529 200.4852,-48.7742"/>
<polygon fill="#000000" stroke="#000000" points="199.9479,-45.3132 190.4237,-49.9542 200.7633,-52.2655 199.9479,-45.3132"/>
</g>
<!-- 11366_paused -->
<g id="node39" class="node">
<title>11366_paused</title>
<ellipse fill="none" stroke="#000000" cx="298.8509" cy="-20" rx="37.7025" ry="18"/>
<text text-anchor="middle" x="298.8509" y="-15.8" font-family="Times,serif" font-size="14.00" fill="#000000">paused</text>
</g>
<!-- 11366_constructor -->
<g id="node40" class="node">
<title>11366_constructor</title>
<ellipse fill="none" stroke="#000000" cx="446.4763" cy="-60" rx="54.4527" ry="18"/>
<text text-anchor="middle" x="446.4763" y="-55.8" font-family="Times,serif" font-size="14.00" fill="#000000">constructor</text>
</g>
<!-- 11366__unpause -->
<g id="node41" class="node">
<title>11366__unpause</title>
<ellipse fill="none" stroke="#000000" cx="104.5079" cy="-20" rx="47.5158" ry="18"/>
<text text-anchor="middle" x="104.5079" y="-15.8" font-family="Times,serif" font-size="14.00" fill="#000000">_unpause</text>
</g>
<!-- 11366_whenPaused -->
<g id="node42" class="node">
<title>11366_whenPaused</title>
<ellipse fill="none" stroke="#000000" cx="299.2766" cy="-60" rx="88.0538" ry="18"/>
<text text-anchor="middle" x="299.2766" y="-55.8" font-family="Times,serif" font-size="14.00" fill="#000000">11366_whenPaused</text>
</g>
<!-- 11366__unpause&#45;&gt;11366_whenPaused -->
<g id="edge27" class="edge">
<title>11366__unpause-&gt;11366_whenPaused</title>
<path fill="none" stroke="#000000" d="M146.2907,-28.581C169.7846,-33.406 199.7715,-39.5645 226.961,-45.1484"/>
<polygon fill="#000000" stroke="#000000" points="226.3346,-48.5928 236.8343,-47.1761 227.7429,-41.7359 226.3346,-48.5928"/>
</g>
<!-- 659_name -->
<g id="node44" class="node">
<title>659_name</title>
<ellipse fill="none" stroke="#000000" cx="33.9506" cy="-20" rx="31.9012" ry="18"/>
<text text-anchor="middle" x="33.9506" y="-15.8" font-family="Times,serif" font-size="14.00" fill="#000000">name</text>
</g>
<!-- 11285_constructor -->
<g id="node45" class="node">
<title>11285_constructor</title>
<ellipse fill="none" stroke="#000000" cx="244.4763" cy="-20" rx="54.4527" ry="18"/>
<text text-anchor="middle" x="244.4763" y="-15.8" font-family="Times,serif" font-size="14.00" fill="#000000">constructor</text>
</g>
<!-- 11285_selfReferencePointer -->
<g id="node46" class="node">
<title>11285_selfReferencePointer</title>
<ellipse fill="none" stroke="#000000" cx="94.0032" cy="-20" rx="92.0065" ry="18"/>
<text text-anchor="middle" x="94.0032" y="-15.8" font-family="Times,serif" font-size="14.00" fill="#000000">selfReferencePointer</text>
</g>
<!-- revert(string) -->
<g id="node50" class="node">
<title>revert(string)</title>
<ellipse fill="none" stroke="#000000" cx="769.9759" cy="-32" rx="61.9519" ry="18"/>
<text text-anchor="middle" x="769.9759" y="-27.8" font-family="Times,serif" font-size="14.00" fill="#000000">revert(string)</text>
</g>
<!-- 11285_selfReferencePointer&#45;&gt;revert(string) -->
<g id="edge41" class="edge">
<title>11285_selfReferencePointer-&gt;revert(string)</title>
<path fill="none" stroke="#000000" d="M185.8714,-21.6309C321.9276,-24.0462 574.1991,-28.5245 697.8549,-30.7197"/>
<polygon fill="#000000" stroke="#000000" points="697.9127,-34.2212 707.9733,-30.8993 698.037,-27.2223 697.9127,-34.2212"/>
</g>
</g>
</svg>